<svg xmlns="http://www.w3.org/2000/svg" width="1200" height="630" viewBox="0 0 1200 630">
  <defs>
    <linearGradient id="bg" x1="0" y1="0" x2="1" y2="1">
      <stop offset="0" stop-color="#ffffff"/>
      <stop offset="0.55" stop-color="#f5f8fb"/>
      <stop offset="1" stop-color="#eaf2f8"/>
    </linearGradient>
    <filter id="shadow" x="-20%" y="-20%" width="140%" height="140%">
      <feDropShadow dx="0" dy="18" stdDeviation="22" flood-color="#11304a" flood-opacity="0.16"/>
    </filter>
  </defs>
  <rect width="1200" height="630" fill="url(#bg)"/>
  <circle cx="1020" cy="90" r="220" fill="#e8f9fd"/>
  <circle cx="90" cy="560" r="180" fill="#eef4f8"/>
  <g filter="url(#shadow)">
    <rect x="80" y="90" width="1040" height="450" rx="42" fill="#ffffff" stroke="#dce5ee"/>
    <rect x="118" y="128" width="92" height="92" rx="24" fill="#07111f"/>
    <text x="164" y="188" text-anchor="middle" font-family="Segoe UI, Arial, sans-serif" font-size="38" font-weight="800" fill="#20bbd7">AR</text>
    <text x="240" y="165" font-family="Segoe UI, Arial, sans-serif" font-size="26" font-weight="700" fill="#07111f">ARNet Discovery</text>
    <text x="240" y="202" font-family="Segoe UI, Arial, sans-serif" font-size="18" fill="#60708a">Substation LAN &amp; relay IP scanner for Windows</text>
    <text x="118" y="304" font-family="Segoe UI, Arial, sans-serif" font-size="58" font-weight="650" fill="#07111f">Discover devices.</text>
    <text x="118" y="372" font-family="Segoe UI, Arial, sans-serif" font-size="58" font-weight="650" fill="#07111f">Verify target lists.</text>
    <text x="118" y="440" font-family="Segoe UI, Arial, sans-serif" font-size="58" font-weight="650" fill="#07111f">Read protocol evidence.</text>
    <rect x="770" y="170" width="260" height="54" rx="27" fill="#07111f"/>
    <text x="900" y="205" text-anchor="middle" font-family="Segoe UI, Arial, sans-serif" font-size="18" font-weight="700" fill="#ffffff">Download portable</text>
    <g font-family="Segoe UI, Arial, sans-serif" font-size="17" font-weight="650">
      <rect x="770" y="260" width="118" height="42" rx="21" fill="#e8f9fd" stroke="#c8eef7"/>
      <text x="829" y="287" text-anchor="middle" fill="#076f84">IEC 61850</text>
      <rect x="902" y="260" width="96" height="42" rx="21" fill="#f8fbfd" stroke="#dce5ee"/>
      <text x="950" y="287" text-anchor="middle" fill="#40516a">IEC 104</text>
      <rect x="770" y="318" width="122" height="42" rx="21" fill="#f8fbfd" stroke="#dce5ee"/>
      <text x="831" y="345" text-anchor="middle" fill="#40516a">Modbus TCP</text>
      <rect x="906" y="318" width="92" height="42" rx="21" fill="#f8fbfd" stroke="#dce5ee"/>
      <text x="952" y="345" text-anchor="middle" fill="#40516a">DNP3</text>
      <rect x="770" y="376" width="94" height="42" rx="21" fill="#f8fbfd" stroke="#dce5ee"/>
      <text x="817" y="403" text-anchor="middle" fill="#40516a">OPC UA</text>
      <rect x="878" y="376" width="120" height="42" rx="21" fill="#f8fbfd" stroke="#dce5ee"/>
      <text x="938" y="403" text-anchor="middle" fill="#40516a">HTTP/SSH</text>
    </g>
  </g>
</svg>
